<svg clip-rule="evenodd" fill-rule="evenodd" stroke-linejoin="round" stroke-miterlimit="2" viewBox="0 0 2195 593" xmlns="http://www.w3.org/2000/svg"><path d="m0 0h2194.24v592.794h-2194.24z" fill="none"/><g fill-rule="nonzero" transform="matrix(4.16667 0 0 4.16667 -199.999759 -191.000138)"><path d="m61.109 167.414h9.598c.277 0 .356-.197.356-1.066v-.158c0-.83-.079-1.027-.356-1.027h-9.598v-10.665h11.494c.277 0 .356-.198.356-1.067v-.158c0-.829-.079-1.027-.356-1.027h-14.22v28.006c0 .316.198.434 1.304.434h.197c1.027 0 1.225-.118 1.225-.434zm17.411-7.307c0-.158-.079-.277-1.145-.277h-.198c-.987 0-1.106.119-1.106.277.04 2.172.079 4.345.079 6.478v13.746c0 .276.198.355 1.146.355h.237c.948 0 1.185-.079 1.185-.355v-4.424c0-2.41.039-4.977.118-6.123.119-2.014.711-3.871 1.857-5.332 1.106-1.383 2.725-2.37 4.858-2.37.356 0 .395-.435.395-1.225v-.316c0-.632-.079-.79-.276-.829-.277-.079-.672-.119-1.185-.119-2.331 0-4.701 1.817-5.846 5.096zm26.666 6.004c0-1.62 0-3.318.04-4.543 0-.395.039-.908.039-1.264 0-.395-.039-.474-.869-.474h-.276c-.83 0-1.067.079-1.106.395l-.198 2.094c-1.185-1.738-3.121-2.884-5.846-2.884-5.254 0-9.046 4.424-9.046 11.179 0 5.727 2.686 10.467 8.69 10.467 2.765 0 5.136-1.145 6.36-3.199l.316 2.449c.04.276.158.355 1.067.355h.118c.79 0 .988-.079.988-.316-.198-2.804-.277-5.056-.277-8.492zm-2.567 4.858c0 3.713-.316 4.898-1.422 6.162-.988 1.106-2.45 1.62-4.346 1.62-4.7 0-6.162-4.187-6.162-8.335 0-5.253 2.449-8.611 6.439-8.611 2.488 0 4.187 1.225 5.491 3.239zm11.49-10.783c0-.277-.277-.356-1.067-.356h-.276c-.751 0-1.067.079-1.067.356.079 1.777.079 3.594.079 5.214v14.852c0 .276.198.434 1.146.434h.316c.829 0 1.106-.158 1.106-.434v-7.782c0-2.409 0-4.582.118-5.727.119-1.067.553-2.133 1.185-2.844 1.185-1.264 2.726-1.936 4.898-1.936 1.936 0 3.516.474 4.385 1.501 1.106 1.304 1.264 3.002 1.264 6.439v10.349c0 .276.197.434 1.145.434h.316c.908 0 1.106-.158 1.106-.434v-12.127c0-3.199-.592-5.253-1.935-6.636-1.304-1.343-3.239-2.054-5.649-2.054-3.12 0-5.451 1.185-6.952 3.279zm22.795 20.5c.632 0 1.106-.079 1.106-.355v-8.295l2.884-2.489 6.557 10.705c.237.355.276.434 1.619.434h.158c.948 0 1.383-.079 1.067-.553l-7.505-12.205c2.962-2.765 5.451-5.767 6.715-7.663.237-.356.039-.435-1.027-.435h-.198c-.948 0-1.224.119-1.422.395-1.817 2.489-4.226 5.096-6.557 7.071l-2.291 1.975v-16.669c0-.277-.434-.356-1.145-.356h-.316c-.632 0-1.106.079-1.106.356v27.729c0 .276.434.355 1.145.355zm26.781-18.644c.277 0 .356-.197.356-.948v-.276c0-.79-.079-.988-.356-.988h-4.858v-1.54c0-3.99.908-6.202 4.542-6.202 1.067 0 2.015.198 2.844.474.356.119.474-.118.672-.79l.079-.276c.158-.632.158-.909-.119-1.027-1.106-.435-2.291-.672-3.594-.672-4.977 0-6.992 3.121-6.992 8.414v1.619h-2.765c-.276 0-.355.198-.355.988v.276c0 .751.079.948.355.948h2.765v18.249c0 .277.237.395 1.146.395h.316c.829 0 1.106-.118 1.106-.395v-18.249zm18.916 18.249c.04.356.158.395 1.027.395h.316c.79 0 .988-.039.948-.474-.118-2.172-.118-4.226-.118-6.28v-13.707c0-.276-.198-.395-1.146-.395h-.316c-.948 0-1.106.119-1.106.395v9.836c0 4.226-.592 5.806-1.698 6.912-1.067 1.067-2.528 1.659-4.503 1.659-2.094 0-3.516-.553-4.385-1.58-1.027-1.224-1.106-3.002-1.106-6.399v-10.428c0-.276-.197-.395-1.145-.395h-.316c-.948 0-1.106.119-1.106.395v12.166c0 3.239.513 5.293 1.856 6.676 1.225 1.343 3.397 2.014 5.846 2.014 3.16 0 5.451-1.264 6.755-3.515zm11.514-20.184c0-.158-.079-.277-1.146-.277h-.197c-.988 0-1.106.119-1.106.277.039 2.172.079 4.345.079 6.478v13.746c0 .276.197.355 1.145.355h.237c.948 0 1.185-.079 1.185-.355v-4.424c0-2.41.04-4.977.119-6.123.118-2.014.711-3.871 1.856-5.332 1.106-1.383 2.726-2.37 4.859-2.37.355 0 .395-.435.395-1.225v-.316c0-.632-.079-.79-.277-.829-.276-.079-.671-.119-1.185-.119-2.33 0-4.7 1.817-5.846 5.096zm21.325 1.698c.237 0 .277-.158.277-.908v-.119c0-.75-.04-.948-.277-.948h-5.569v-5.885c0-.158-.119-.237-1.146-.237h-.276c-1.106 0-1.146.039-1.146.237v5.885h-2.725c-.237 0-.277.198-.277.948v.119c0 .75.04.908.237.908h2.765v12.956c0 2.607.316 4.069 1.383 5.096.829.75 2.093 1.224 3.713 1.224 1.343 0 2.883-.237 4.147-.75.198-.079.277-.198.079-.948l-.079-.277c-.197-.711-.197-.829-.553-.711-.869.316-1.975.474-3.002.474-1.106 0-1.817-.197-2.409-.79-.632-.632-.711-1.698-.711-3.594v-12.68zm28.385 4.306c0-1.62 0-3.318.04-4.543 0-.395.039-.908.039-1.264 0-.395-.039-.474-.869-.474h-.276c-.83 0-1.067.079-1.106.395l-.198 2.094c-1.185-1.738-3.12-2.884-5.846-2.884-5.253 0-9.045 4.424-9.045 11.179 0 5.727 2.686 10.467 8.69 10.467 2.765 0 5.135-1.145 6.359-3.199l.316 2.449c.04.276.158.355 1.067.355h.118c.79 0 .988-.079.988-.316-.198-2.804-.277-5.056-.277-8.492zm-2.567 4.858c0 3.713-.316 4.898-1.422 6.162-.988 1.106-2.449 1.62-4.345 1.62-4.701 0-6.162-4.187-6.162-8.335 0-5.253 2.449-8.611 6.438-8.611 2.489 0 4.187 1.225 5.491 3.239zm10.131-11.139h-.316c-.79 0-1.027.04-1.027.356.079 1.54.079 3.357.079 5.214v14.931c0 .276.435.355 1.146.355h.316c.632 0 1.106-.079 1.106-.355v-7.861c0-2.409 0-4.582.118-5.727.119-1.067.395-1.936.909-2.607 1.145-1.541 2.923-2.173 4.937-2.173 1.935 0 3.318.474 4.187 1.501 1.106 1.304 1.264 3.002 1.264 6.439v10.428c0 .276.435.355 1.146.355h.316c.632 0 1.106-.079 1.106-.355v-10.744c0-1.185.039-2.173.118-2.844.119-1.067.395-1.936.909-2.607 1.145-1.541 2.844-2.173 4.937-2.173 1.936 0 3.318.474 4.187 1.501 1.106 1.304 1.264 3.002 1.264 6.439v10.428c0 .276.435.355 1.146.355h.316c.632 0 1.106-.079 1.106-.355v-12.206c0-3.199-.593-5.253-1.936-6.636-1.303-1.343-3.318-2.054-5.648-2.054-3.081 0-5.53 1.185-7.189 3.832-.277-.711-.672-1.264-1.146-1.778-1.303-1.343-3.081-2.054-5.411-2.054-2.923 0-5.214 1.027-6.676 3.16l-.118-2.409c0-.316-.316-.356-1.146-.356zm44.941-7.584h-.198c-1.224 0-1.461.079-1.461.395l-1.343 27.769c0 .197.158.276 1.185.276h.158c1.027 0 1.185-.079 1.185-.276l.908-24.451 7.9 19.316c.119.276.316.316 1.304.316h.316c.987 0 1.185-.04 1.303-.316l7.624-19.632.908 24.767c0 .197.158.276 1.185.276h.237c1.027 0 1.185-.079 1.185-.276l-1.185-27.769c0-.316-.237-.395-1.461-.395h-.198c-1.422 0-1.659.119-1.777.395l-7.861 20.382-8.216-20.382c-.118-.276-.355-.395-1.698-.395zm44.966 13.865c0-1.62 0-3.318.04-4.543 0-.395.039-.908.039-1.264 0-.395-.039-.474-.869-.474h-.276c-.83 0-1.067.079-1.106.395l-.198 2.094c-1.185-1.738-3.12-2.884-5.846-2.884-5.253 0-9.045 4.424-9.045 11.179 0 5.727 2.686 10.467 8.69 10.467 2.765 0 5.135-1.145 6.359-3.199l.316 2.449c.04.276.158.355 1.067.355h.118c.79 0 .988-.079.988-.316-.198-2.804-.277-5.056-.277-8.492zm-2.567 4.858c0 3.713-.316 4.898-1.422 6.162-.988 1.106-2.449 1.62-4.345 1.62-4.701 0-6.162-4.187-6.162-8.335 0-5.253 2.449-8.611 6.438-8.611 2.489 0 4.187 1.225 5.491 3.239zm8.97-18.328c0 1.225.948 2.094 2.054 2.094s2.054-.869 2.054-2.094c0-1.185-.948-2.133-2.054-2.133s-2.054.948-2.054 2.133zm.75 27.65c0 .277.198.395 1.146.395h.316c.869 0 1.106-.118 1.106-.395v-20.105c0-.277-.237-.356-1.146-.356h-.316c-.829 0-1.106.079-1.106.356zm12.206-20.105c0-.277-.277-.356-1.067-.356h-.276c-.751 0-1.067.079-1.067.356.079 1.777.079 3.594.079 5.214v14.852c0 .276.198.434 1.146.434h.316c.829 0 1.106-.158 1.106-.434v-7.782c0-2.409 0-4.582.118-5.727.119-1.067.553-2.133 1.185-2.844 1.185-1.264 2.726-1.936 4.898-1.936 1.936 0 3.516.474 4.385 1.501 1.106 1.304 1.264 3.002 1.264 6.439v10.349c0 .276.197.434 1.145.434h.316c.909 0 1.106-.158 1.106-.434v-12.127c0-3.199-.592-5.253-1.935-6.636-1.304-1.343-3.239-2.054-5.649-2.054-3.12 0-5.451 1.185-6.952 3.279z" fill="#231f20"/><path d="m69.936 122.322c-.602 0-.774 0-.774 2.279v.344c0 2.193.215 2.365.774 2.365h4.773v7.052c-1.118.344-2.494.559-3.698.559-5.461 0-7.912-3.999-7.912-10.75 0-6.923 2.838-10.621 8.256-10.621 2.494 0 4.257.774 6.192 2.064.43.301.688.301 1.591-1.204l.516-.86c1.075-1.763.946-2.021.344-2.451-2.408-1.72-5.461-2.795-9.073-2.795-4.214 0-7.826 1.462-10.277 4.085-2.537 2.752-3.956 6.794-3.956 11.825 0 10.019 4.644 15.91 13.674 15.91 3.569 0 7.826-.903 10.019-2.064.473-.258.516-.516.516-.903v-14.19c0-.559-.258-.645-1.935-.645zm34.606 8.041c.344 0 .43-.559.43-2.236 0-6.708-3.397-11.567-9.933-11.567-6.579 0-10.578 4.988-10.578 12.04 0 7.31 4.3 11.524 11.051 11.524 3.01 0 6.192-.86 8.342-2.064.516-.301.559-.559.043-2.021l-.387-1.075c-.473-1.29-.688-1.462-1.161-1.247-1.935.817-3.956 1.376-6.063 1.376-3.268 0-5.203-1.677-5.676-4.73zm-13.932-4.214c.559-2.881 2.107-4.644 4.472-4.644 2.408 0 3.741 1.978 3.999 4.644zm17.492 9.46c-.688 1.247-.731 1.634-.387 1.935 1.763 1.505 4.687 2.58 7.998 2.58 3.139 0 5.504-.817 7.095-2.365 1.376-1.333 2.193-3.225 2.193-5.203 0-7.74-11.008-6.063-11.008-9.288 0-.516.215-.903.602-1.247.559-.473 1.548-.731 2.795-.731 1.677 0 3.01.516 4.386 1.376.473.301.774.086 1.548-1.247l.387-.602c.86-1.462.946-1.806.516-2.107-1.806-1.376-4.257-2.15-7.095-2.15-5.031 0-8.901 2.752-8.901 7.267 0 8.213 11.008 6.149 11.008 9.503 0 1.161-1.333 2.021-3.612 2.021-1.806 0-3.827-.731-5.504-1.849-.473-.344-.86.043-1.591 1.333zm23.138-18.619c-2.795 0-2.882.172-2.882.645v13.244c0 3.268.603 5.332 2.022 6.923 1.29 1.462 3.311 2.322 5.934 2.322s4.816-1.075 6.192-2.709c.086.645.172 1.333.301 1.72.172.473.559.559 2.666.559h.215c2.451 0 2.623-.172 2.58-.774-.172-2.322-.301-6.063-.301-9.417v-11.868c0-.473-.258-.645-2.795-.645h-.215c-2.795 0-2.881.172-2.881.645v10.062c0 1.634 0 3.225-.086 4.214-.086 1.032-.301 1.72-1.204 2.279-.774.473-1.849.688-2.838.688-1.247 0-2.279-.344-2.838-.989-.688-.774-.86-1.677-.86-4.644v-11.61c0-.473-.258-.645-2.795-.645zm24.406 0c-2.451 0-2.623.172-2.58.774.172 2.322.301 6.063.301 9.417v11.868c0 .473.086.645 2.881.645h.215c2.537 0 2.795-.172 2.795-.645v-10.062c0-1.634 0-3.225.086-4.214.086-1.032.301-1.72 1.204-2.279.774-.473 1.892-.688 2.881-.688 1.247 0 2.322.344 2.881.989.688.774.86 1.677.86 4.644v11.61c0 .473.086.645 2.881.645h.215c2.537 0 2.795-.172 2.795-.645v-13.244c0-3.268-.602-5.332-2.021-6.923-1.29-1.462-3.354-2.322-5.977-2.322s-4.859 1.118-6.235 2.709c-.086-.645-.172-1.333-.301-1.72-.172-.473-.559-.559-2.666-.559zm38.725-9.976c-2.795 0-2.881.172-2.881.645v10.836c-1.419-1.247-3.096-1.935-5.117-1.935-5.633 0-9.46 4.515-9.46 12.127 0 7.051 3.44 11.437 9.073 11.437 2.365 0 4.515-.86 5.977-2.408.559 1.29 1.849 2.15 3.741 2.15 1.161 0 2.322-.215 3.096-.516.301-.129.387-.473.387-1.978v-.473c0-1.548-.043-1.763-.559-1.763-.86 0-1.247-.258-1.247-1.204v-26.273c0-.473-.258-.645-2.795-.645zm-2.881 24.639c0 1.118-.129 1.806-.602 2.322-.645.688-2.021 1.118-3.225 1.118s-2.451-.344-3.225-1.247c-.86-.989-1.462-2.623-1.462-5.159 0-4.559 1.505-7.053 4.644-7.053 1.505 0 2.795.688 3.87 1.978zm15.393-24.639c-2.795 0-2.881.172-2.881.645v31.39c0 .473.086.645 2.881.645h.215c2.537 0 2.795-.172 2.795-.645v-10.062c0-1.634 0-3.225.086-4.214.086-1.032.301-1.72 1.204-2.279.774-.473 1.892-.688 2.881-.688 1.247 0 2.322.344 2.881.989.688.774.86 1.677.86 4.644v11.61c0 .473.086.645 2.881.645h.215c2.537 0 2.795-.172 2.795-.645v-13.244c0-3.268-.602-5.332-2.021-6.923-1.29-1.462-3.354-2.322-5.977-2.322-2.408 0-4.429.903-5.805 2.279v-11.18c0-.473-.258-.645-2.795-.645zm40.179 23.349c.344 0 .43-.559.43-2.236 0-6.708-3.397-11.567-9.933-11.567-6.579 0-10.578 4.988-10.578 12.04 0 7.31 4.3 11.524 11.051 11.524 3.01 0 6.192-.86 8.342-2.064.516-.301.559-.559.043-2.021l-.387-1.075c-.473-1.29-.688-1.462-1.161-1.247-1.935.817-3.956 1.376-6.063 1.376-3.268 0-5.203-1.677-5.676-4.73zm-13.932-4.214c.559-2.881 2.107-4.644 4.472-4.644 2.408 0 3.741 1.978 3.999 4.644zm18.098-16.125c0 1.892 1.548 3.526 3.612 3.526 2.063 0 3.612-1.634 3.612-3.526s-1.549-3.526-3.612-3.526c-2.064 0-3.612 1.634-3.612 3.526zm3.655 6.966c-2.795 0-2.881.172-2.881.645v21.414c0 .473.086.645 2.881.645h.215c2.537 0 2.795-.172 2.795-.645v-21.414c0-.473-.258-.645-2.795-.645zm13.406-6.192c-2.795 0-2.881.172-2.881.645v5.547h-2.967c-.388 0-.56.086-.56 2.15v.301c0 2.064.172 2.15.56 2.15h2.967v10.965c0 2.795.559 4.601 1.763 5.805 1.118 1.118 2.795 1.763 5.203 1.763 1.677 0 3.569-.387 4.945-1.075.516-.258.559-.516.086-2.107l-.129-.43c-.473-1.591-.688-1.849-1.118-1.72-.774.258-1.548.43-2.236.43-.817 0-1.462-.215-1.892-.602-.516-.473-.731-1.161-.731-2.408v-10.621h5.117c.387 0 .559-.086.559-2.15v-.301c0-2.064-.172-2.15-.559-2.15h-5.117v-5.547c0-.473-.258-.645-2.795-.645zm11.313 24.811c-.688 1.247-.731 1.634-.387 1.935 1.763 1.505 4.687 2.58 7.998 2.58 3.139 0 5.504-.817 7.095-2.365 1.376-1.333 2.193-3.225 2.193-5.203 0-7.74-11.008-6.063-11.008-9.288 0-.516.215-.903.602-1.247.559-.473 1.548-.731 2.795-.731 1.677 0 3.01.516 4.386 1.376.473.301.774.086 1.548-1.247l.387-.602c.86-1.462.946-1.806.516-2.107-1.806-1.376-4.257-2.15-7.095-2.15-5.031 0-8.901 2.752-8.901 7.267 0 8.213 11.008 6.149 11.008 9.503 0 1.161-1.333 2.021-3.612 2.021-1.806 0-3.827-.731-5.504-1.849-.473-.344-.86.043-1.591 1.333zm34.383-16.512c-.989-1.419-3.096-2.537-5.418-2.537-5.16 0-9.503 4.386-9.503 12.213 0 7.051 3.483 11.351 9.116 11.351 2.193 0 4.601-.989 5.891-2.451.086.516.172 1.204.301 1.462.172.473.516.559 2.623.559h.215c2.451 0 2.494-.172 2.451-.774-.172-2.322-.301-6.063-.301-9.417v-2.623c0-3.526.086-7.869.086-9.288 0-.473-.301-.602-2.494-.602h-.258c-2.322 0-2.494.172-2.537.559zm-.516 12.384c0 1.032-.129 1.806-.602 2.408-.602.774-1.849 1.29-3.225 1.29-3.483 0-4.515-2.752-4.515-6.579 0-4.429 1.462-6.923 4.601-6.923 1.505 0 2.924.817 3.741 2.064zm14.086-14.491c-2.451 0-2.623.172-2.58.774.172 2.322.301 6.063.301 9.417v11.868c0 .473.086.645 2.881.645h.215c2.537 0 2.795-.172 2.795-.645v-10.105c0-1.634 0-3.225.086-4.214.086-1.032.301-1.72 1.204-2.279.774-.473 1.849-.645 2.623-.645 1.161 0 2.15.344 2.709.989.688.774.86 1.677.86 4.644v11.61c0 .473.086.645 2.881.645h.215c2.537 0 2.795-.172 2.795-.645v-10.105c0-1.634 0-3.225.086-4.214.086-1.032.301-1.72 1.204-2.279.774-.473 1.849-.645 2.623-.645 1.161 0 2.15.344 2.709.989.688.774.86 1.677.86 4.644v11.61c0 .473.086.645 2.881.645h.215c2.537 0 2.795-.172 2.795-.645v-13.244c0-3.268-.602-5.332-2.021-6.923-1.29-1.462-3.268-2.322-5.762-2.322-2.666 0-5.117 1.204-6.837 3.397-1.204-2.236-3.784-3.397-6.45-3.397-2.451 0-4.644 1.204-6.063 2.838-.086-.645-.215-1.462-.344-1.849-.172-.473-.559-.559-2.666-.559zm40.192-6.192c-2.795 0-2.881.172-2.881.645v5.547h-2.967c-.387 0-.559.086-.559 2.15v.301c0 2.064.172 2.15.559 2.15h2.967v10.965c0 2.795.559 4.601 1.763 5.805 1.118 1.118 2.795 1.763 5.203 1.763 1.677 0 3.569-.387 4.945-1.075.516-.258.559-.516.086-2.107l-.129-.43c-.473-1.591-.688-1.849-1.118-1.72-.774.258-1.548.43-2.236.43-.817 0-1.462-.215-1.892-.602-.516-.473-.731-1.161-.731-2.408v-10.621h5.117c.387 0 .559-.086.559-2.15v-.301c0-2.064-.172-2.15-.559-2.15h-5.117v-5.547c0-.473-.258-.645-2.795-.645z" fill="#231f20"/><path d="m489.427 79.264c6.102 0 11.049-4.947 11.049-11.05 0-6.101-4.947-11.048-11.049-11.048-6.103 0-11.05 4.947-11.05 11.048 0 6.103 4.947 11.05 11.05 11.05z" fill="#f68b1e"/><path d="m452.71 129.93c.976 4.157 1.593 15.082-.705 21.142-.652 1.717-2.027 3.159-3.358 4.551-.486.509-1.283 1.344-1.717 1.921.616 2.559 1.235 5.137 1.867 7.81.184.775.359 1.561.537 2.35 1.824 8.136 3.446 13.488 9.155 13.751.19.008.38.013.568.013 5.907 0 7.2-4.448 8.821-11.707.146-.653.292-1.306.444-1.952.555-2.361 1.162-4.723 1.748-7.008.479-1.868.936-3.65 1.32-5.256.603-2.528 1.349-5.261 2.068-7.904 1.619-5.942 3.292-12.084 3.712-16.963.449-5.24-.399-7.974-1.382-10.147-.503-1.111-1.376-2.166-2.22-3.185-1.23-1.483-2.5-3.016-2.816-4.918-.569-3.422.357-7.26 1.251-10.971.805-3.337 1.566-6.489 1.194-8.972-.726-4.875-5.336-7.346-13.703-7.346-1.522 0-3.167.09-4.888.268-4.117.427-6.592 1.371-8.022 3.057-2.393 2.832-1.732 7.109-.967 12.058l.143.929c.162 1.063.417 2.227.687 3.457.613 2.795 1.247 5.685.835 7.866-.374 1.978-1.723 3.498-3.03 4.968-.388.437-.771.883-1.138 1.337 6.169 2.409 8.666 6.894 9.596 10.851z" fill="#1c62ae"/><path d="m469.565 70.648c0-5.825-4.74-10.565-10.566-10.565-5.825 0-10.564 4.74-10.564 10.565s4.739 10.565 10.564 10.565c5.826 0 10.566-4.74 10.566-10.565z" fill="#1c62ae"/><path d="m430.875 120.906c-8.792.341-13.971 3.642-15.426 9.837-.897 3.826-1.364 13.975.569 19.07.396 1.045 1.471 2.17 2.608 3.361 1.401 1.465 2.419 2.586 2.79 3.68.837 2.465.608 5.849.385 9.122-.232 3.397-.472 6.889.467 9.362 1.17 3.084 4.37 5.309 8.562 5.952.205.024 1 .106 1.5.106.803 0 1.548-.107 1.556-.108 4.179-.641 7.379-2.866 8.549-5.95.937-2.475.699-5.966.468-9.343-.224-3.279-.456-6.671.382-9.142.373-1.096 1.393-2.216 2.791-3.679 1.139-1.193 2.212-2.317 2.609-3.36 1.932-5.097 1.466-15.246.568-19.073-1.457-6.197-6.645-9.496-15.414-9.832-.258.029-.939-.027-1.596-.03-.579-.002-1.138.054-1.368.027z" fill="#ee4485"/><path d="m441.89 107.923c0-5.252-4.273-9.524-9.525-9.524-5.251 0-9.524 4.272-9.524 9.524s4.273 9.524 9.524 9.524c5.252 0 9.525-4.272 9.525-9.524z" fill="#ee4485"/><g fill="#5fbc55"><path d="m527.048 108.367c-5.673.745-9.843 3.586-11.746 8-2.631 6.105-2.073 24.415-1.169 27.075.466 1.412 1.57 2.639 2.638 3.826.466.519.948 1.055 1.378 1.606l.307.395 1.554 13.728c1.05 5.943 1.764 8.024 5.548 8.024h18.108c3.783 0 4.497-2.081 5.547-8.024l1.554-13.729.309-.395c.427-.55.909-1.085 1.375-1.602 1.068-1.188 2.173-2.415 2.636-3.815.907-2.675 1.464-20.989-1.166-27.089-1.902-4.414-6.073-7.255-11.743-8-5.753-.926-10.831-.832-15.13 0z"/><path d="m568.104 138.256c-.132-2.314-1.612-3.641-4.06-3.641-.109 0-.22.002-.331.008-.946.046-2.253.3-3.108 1.252-.782.867-.892 1.993-.847 2.784l2.221 39.093c.138 2.415 1.763 3.745 4.391 3.633.946-.046 2.252-.3 3.108-1.252.783-.869.892-1.994.848-2.784z"/><path d="m505.853 134.621c-.11-.005-.218-.008-.325-.008-2.432 0-3.901 1.327-4.032 3.642l-2.211 39.094c-.045.795.066 1.925.848 2.792.851.946 2.143 1.198 3.077 1.244 2.586.112 4.221-1.217 4.358-3.635l2.21-39.093c.044-.795-.065-1.924-.847-2.793-.852-.944-2.145-1.197-3.078-1.243z"/></g><path d="m497.951 138.055c.209-3.717 2.634-6.33 6.192-6.878l.014-.02s5.389-.201 6.04-7.178c.001-.008.003-.015.004-.025.082-.867.668-8.517 1.001-11.841 1.249-12.445 3.694-24.047-5.793-27.094-3.078-.99-8.947-1.348-14.77-1.348h-2.426c-5.823 0-11.692.358-14.768 1.348-.178.058-.343.123-.512.187 2.414 1.971 3.435 4.466 3.776 6.754.474 3.167-.404 6.809-1.254 10.329-.811 3.366-1.651 6.847-1.201 9.557.159.956 1.076 2.062 2.048 3.234.947 1.145 2.022 2.442 2.722 3.986 1.593 3.525 2.097 7.088 1.683 11.916-.408 4.756-1.881 10.435-3.4 16.036-.136 3.793-1.877 23.544.102 28.422 1.567 3.864 6.778 5.903 12.017 5.953 2.152-.021 4.202-.233 6.176-1.358z" fill="#f68b1e"/><path d="m545.14 93.948c0-5.825-4.739-10.566-10.566-10.566-5.825 0-10.564 4.741-10.564 10.566s4.739 10.565 10.564 10.565c5.827 0 10.566-4.74 10.566-10.565z" fill="#5fbc55"/></g></svg>