<svg clip-rule="evenodd" fill-rule="evenodd" stroke-miterlimit="2" viewBox="0 0 2155 296" xmlns="http://www.w3.org/2000/svg"><g transform="scale(4.16667)"><path d="m23.835 29.241c-1.958-3.535-5.874-5.765-10.007-5.765-6.145 0-10.496 4.296-10.496 10.387 0 3.264 1.523 5.656 4.242 7.342l7.396 3.916c3.535 1.74 8.267 3.698 8.267 8.321 0 5.438-4.732 9.68-10.116 9.68-4.949 0-8.157-3.045-9.898-7.396l-2.284 1.033c1.904 5.275 6.363 8.81 12.074 8.81 6.634 0 12.834-5.112 12.834-11.91 0-3.698-1.577-6.2-4.677-8.157l-7.831-4.079c-3.318-1.577-7.397-3.372-7.397-7.668 0-4.297 3.318-7.832 7.723-7.832 3.861 0 6.472 1.904 8.321 4.84z" fill="#231f20" fill-rule="nonzero"/><path d="m34.759 39.336h7.065v-1.63h-15.87v1.63h7.066v25.69h1.739z" fill="#231f20" fill-rule="nonzero"/><path d="m55.127 56.04 3.659 8.986h1.776l-11.414-28.226-11.449 28.226h1.775l3.66-8.986zm-.652-1.631h-10.689l5.362-13.189z" fill="#231f20"/><path d="m62.048 65.026h4.928c4.058 0 7.283-.725 10.29-3.624 2.754-2.645 4.203-6.232 4.203-10 0-3.913-1.486-7.573-4.348-10.254-3.007-2.79-6.16-3.442-10.145-3.442h-4.928zm1.739-1.631v-24.059h3.153c3.406 0 6.232.616 8.84 2.971 2.573 2.356 3.95 5.617 3.95 9.095 0 3.261-1.305 6.377-3.624 8.696-2.608 2.572-5.579 3.297-9.166 3.297z" fill="#231f20"/><path d="m90.132 39.336h7.065v-1.63h-15.87v1.63h7.066v25.69h1.739z" fill="#231f20" fill-rule="nonzero"/><path d="m193.709 26.467v-2.447h-16.533v41.006h2.611v-21.21h13.541v-2.448h-13.541v-14.901z" fill="#231f20" fill-rule="nonzero"/><path d="m201.956 52.09c4.529.073 7.827-2.391 7.827-7.138 0-2.319-.798-4.492-2.754-5.869-1.848-1.341-4.022-1.377-6.232-1.377h-3.406v27.32h1.739v-12.936h.87l8.913 12.936h1.993zm-2.826-1.63v-11.124h1.123c1.594 0 3.442-.072 4.892.616 1.956.87 2.898 2.899 2.898 4.928 0 1.63-.616 3.261-1.92 4.312-1.377 1.195-3.08 1.268-4.783 1.268z" fill="#231f20"/><path d="m228.356 56.04 3.477 8.986h1.687l-10.843-28.226-10.877 28.226h1.686l3.477-8.986zm-.619-1.631h-10.154l5.094-13.189z" fill="#231f20"/><path d="m258.666 37.706h-1.6v23.841l-21.1-24.204v27.683h1.6v-23.479l21.1 24.384z" fill="#231f20" fill-rule="nonzero"/><path d="m266.476 50.46v-12.754h-1.705v27.32h1.705v-12.32l.71-.724 12.854 13.044h2.237l-13.919-14.168 13.102-13.152h-2.272z" fill="#231f20" fill-rule="nonzero"/><path d="m294.453 39.336v-1.63h-11.015v27.32h1.739v-14.131h9.023v-1.631h-9.023v-9.928z" fill="#231f20" fill-rule="nonzero"/><path d="m314.453 54.228c0 2.464 0 5.073-1.413 6.884-1.34 1.74-4.022 2.645-6.123 2.645-2.102 0-4.783-.905-6.124-2.645-1.413-1.811-1.413-4.42-1.413-6.884v-16.522h-1.739v17.029c0 2.79 0 5.182 1.848 7.464 1.848 2.102 4.674 3.189 7.428 3.189 2.753 0 5.58-1.087 7.428-3.189 1.847-2.282 1.847-4.674 1.847-7.464v-17.029h-1.739z" fill="#231f20" fill-rule="nonzero"/><path d="m324.752 52.09c4.529.073 7.827-2.391 7.827-7.138 0-2.319-.797-4.492-2.754-5.869-1.848-1.341-4.022-1.377-6.232-1.377h-3.406v27.32h1.739v-12.936h.87l8.913 12.936h1.993zm-2.826-1.63v-11.124h1.123c1.595 0 3.443-.072 4.892.616 1.956.87 2.898 2.899 2.898 4.928 0 1.63-.616 3.261-1.92 4.312-1.377 1.195-3.08 1.268-4.783 1.268z" fill="#231f20"/><path d="m341.599 39.336h7.065v-1.63h-15.87v1.63h7.066v25.69h1.739z" fill="#231f20" fill-rule="nonzero"/><path d="m369.839 56.04 3.293 8.986h1.598l-10.272-28.226-10.305 28.226h1.598l3.294-8.986zm-.587-1.631h-9.62l4.826-13.189z" fill="#231f20"/><path d="m404.654 65.026h1.583l-5.576-28.226-9.569 24.856-9.535-24.856-5.576 28.226h1.583l4.44-22.61h.069l9.019 23.515 9.052-23.515h.069z" fill="#231f20" fill-rule="nonzero"/><path d="m457.488 65.026h2.377l-8.37-42.366-14.363 37.308-14.311-37.308-8.369 42.366h2.376l6.665-33.936h.103l13.536 35.295 13.588-35.295h.104z" fill="#231f20" fill-rule="nonzero"/><path d="m479.244 56.04 3.367 8.986h1.633l-10.5-28.226-10.534 28.226h1.634l3.366-8.986zm-.6-1.631h-9.834l4.934-13.189z" fill="#231f20"/><path d="m488.091 37.706h1.739v27.32h-1.739z" fill="#231f20" fill-rule="nonzero"/><path d="m516.817 37.706h-1.618v23.841l-21.33-24.204v27.683h1.618v-23.479l21.33 24.384z" fill="#231f20" fill-rule="nonzero"/><g fill="none" stroke="#ed1c24" stroke-width=".56"><path d="m167.178 38.092.012.849c0 17.382-14.09 31.472-31.471 31.472-16.108 0-31.22-13.062-31.22-31.189l-.024-38.18h62.704z"/><path d="m134.621 14.502s-.063.691-.377 1.131-.69 1.005-1.13 1.256-.502.189-1.005.691c-.502.502-1.005 1.068-1.256 1.256s-1.193.817-1.193.817-.126.314-.063.816c.063.503-.189 1.068-.251 1.319-.063.251-.377 1.005-.377 1.005s-.314.188-.691.188-.942-.376-1.382-.502c-.439-.126-1.758-.377-2.01-.628-.251-.251-1.067-.879-1.067-.879l-.566-.629s-.188-.439-.188-.816-.251-1.193-.377-1.445c-.125-.251-.879-1.319-.879-1.319s-.251-1.067-.251-1.633c0-.565 0-1.319.188-1.695.189-.377.377-1.256.691-1.445.314-.188.816-.942.816-.942s.503.251.754.251 1.57-.478 1.445-1.42c-.126-.942-1.005-2.135-1.508-2.261-.502-.126-6.695-1.382-7.889-1.57-1.193-.188-3.579-.754-4.082-.754-.502 0-2.387-.439-3.077-.879-.691-.44-2.261-1.256-2.261-1.256s-.252 3.203.816 4.082c1.068.88 2.261 1.633 4.711 1.947 2.449.314 7.26 1.232 7.26 1.232l-.666.691s-10.174.063-10.677-.063c-.502-.126-1.507-.314-1.507-.314s-.44 2.135.754 2.952c1.193.816 2.763 1.005 3.517 1.005h6.343l-.188 1.005s-2.45.314-3.141.502c-.691.189-4.019 1.005-4.71 1.068s-2.826.188-2.826.188-.189 2.764 1.947 3.015c2.135.251 3.831-.251 4.71-.377.879-.125 4.208-.628 4.208-.628l.126.817-5.402 3.077s-2.889 1.822-3.454 1.947c-.565.126-2.198.628-2.198.628s.188 2.575 2.952 2.261c2.763-.314 6.594-2.889 6.594-2.889l3.015-1.444.063.628s-7.097 6.884-8.102 7.575-4.648 3.643-4.648 3.643-.062 1.758 2.826 1.884c2.889.126 7.16-5.339 7.16-5.339l4.937-5 .377.503s-6.444 10.087-8.705 12.914c-2.261 2.826-5.59 6.067-5.59 6.067s2.073 1.571 3.329 1.131 4.17-2.676 7.474-7.827c3.304-5.15 6.758-10.426 6.758-10.426l.754.314s-4.271 9.547-5.025 11.431c-.753 1.885-1.545 2.262-1.545 2.262s3.115.565 4.434-1.068 5.778-11.431 5.778-11.431l1.131-.189.126 2.638-5.716 9.296 1.884-.063-5.715 8.203-4.749.126s-1.004-.879-2.135-.817c-1.13.063-2.952 1.571-2.952 1.571l1.696-.126s.314 1.131 1.193 1.131c.88 0 5.276-.377 5.276-.377s-2.449 1.633-3.203 1.884-1.999.39-2.324.816c-1.005 1.319-.691 3.141-.691 3.141l.126-.88 1.005-.502s1.067.565 1.57.126c.502-.44.879-1.319.879-1.319s1.005-.754 1.633-.942c.628-.189 1.608-.629 1.608-.629l-.125 1.885s-.855 1.57-.792 2.198.164 1.382.478 1.884c.314.503.816.691.816.691l.189-1.57s.628-.314.879-.817c.251-.502-.251-1.507-.251-1.507v-1.696s.879-1.005 1.13-1.382c.251-.376.628-1.193.628-1.193l1.947-.063s.565.628 1.382.817c.816.188 1.758 0 1.758 0l.691.439s0-.628-.063-1.193c-.062-.565-.628-1.696-1.57-1.696s-1.884.314-2.386.251c-.503-.062-1.131-.314-1.131-.314s1.696-2.135 2.324-2.889c.628-.753 3.58-3.869 3.58-3.869l.754 1.319 3.203-7.349s-.252 3.203-.565 5.276c-.315 2.073-1.257 4.246-1.257 4.246l1.068-.062s-.816 2.952-1.068 3.517c-.251.565-1.067 2.135-1.067 2.135l1.005-.062s-2.136 4.019-3.078 5.778-3.705 5.276-3.705 5.276 1.57.502 3.014-.189c1.445-.691 3.015-3.266 3.015-3.266s-1.068 3.87.188 4.058c1.256.189 2.261-.792 2.261-.792s.53 4.178 2.638 4.058c3.304-.188 3.116-4.372 3.116-4.372s.942 1.772 2.261 1.295c1.319-.478.628-3.179.628-3.179s1.319 2.324 3.014 2.324c1.696 0 2.324-.251 2.324-.251s-2.575-2.513-3.328-4.146c-.754-1.633-2.952-6.657-2.952-6.657l.753-.063s-.879-2.136-1.256-3.015-.816-2.638-.816-2.638h1.005s-1.194-2.362-1.445-4.372-.314-5.087-.314-5.087l3.266 8.29.754-2.009s2.7 2.676 3.517 3.555c.816.879 2.575 3.392 2.575 3.392s-1.131.314-1.633.251c-.503-.063-2.45-.754-3.078-.126s-1.381 2.701-1.381 2.701l.502-.628s1.445.377 2.261.126c.817-.252 1.696-.88 1.696-.88l1.633.063s.314.503.691.942c.376.44 1.193 1.005 1.193 1.005l.063 1.822s-.565 1.507-.314 1.947c.251.439 1.256.942 1.256.942l.063 1.507s.69-.44.816-.754.251-1.067.251-1.067.44-1.068.126-1.571c-.314-.502-.817-1.319-.817-1.319l-.188-2.261 2.575 1.382 1.608 1.696 1.005.628.691.942s.817-2.198.377-2.826-2.324-1.256-2.324-1.256l-2.99-1.759 2.387-.063s1.545.503 2.048.252c.502-.252 1.507-1.068 1.507-1.068l1.256.314-.879-.942s-1.193-.817-2.073-.754c-.879.063-1.859.754-2.236.816-.377.063-3.015.126-3.015.126l-.691-.188-5.527-8.58 1.696.251-6.406-9.233-.188-2.889 1.444.251 5.025 9.484s1.005 2.01 2.072 2.512c1.068.503 3.957.691 3.957.691s-1.696-2.575-2.135-3.454c-.44-.879-4.899-10.238-4.899-10.238l.879-.377 10.338 14.823s1.211 1.968 3.141 2.425c2.386.565 4.082-.855 4.082-.855s-2.45-1.758-3.329-2.638c-.879-.879-11.029-15.928-11.029-15.928l.565-.565 9.02 9.145s1.319 1.382 2.952 1.193c1.632-.188 2.826-1.507 2.826-1.507s-2.764-2.01-3.831-3.078c-1.068-1.068-8.643-8.831-8.643-8.831l.314-.879 6.382 4.082s2.008.938 3.077.691c1.633-.377 2.826-2.261 2.826-2.261s-1.947-.503-3.328-1.194c-1.382-.69-7.889-4.459-7.889-4.459l.063-.691s5.69 1.633 6.884 1.571c1.193-.063 2.261-.817 2.763-1.508.503-.691 1.068-1.821 1.068-1.821s-1.319 0-3.769-.314c-2.449-.314-7.009-1.57-7.009-1.57l-.126-.754s7.77.239 9.082-.691c1.508-1.068 2.01-3.643 2.01-3.643s-3.077.691-5.213.691h-7.26l-.566-.855s3.932-.753 5.942-.879 5.904-1.633 6.218-2.575.251-2.952.251-2.952-3.14 1.319-5.338 1.633c-2.199.314-13.89 1.261-13.793 3.517.126 2.927 2.701 1.985 2.701 1.985s1.633 2.827 1.507 4.271c-.126 1.445-1.005 2.324-1.256 3.329s-.188 1.507-.565 2.073c-.377.565-1.759 1.695-2.638 2.072s-3.015 1.068-3.015 1.068-.314-1.193-.691-1.633c-.376-.44-1.13-1.13-1.13-1.13s-.503-1.068-.377-1.571c.126-.502.503-1.13.503-1.13l-.315-.817s0-.942.063-1.633.754-1.57.754-1.57l-.377-.377s-.125-1.067-.44-1.947c-.314-.879-1.004-2.425-1.004-2.425l.879-1.444-.691-.566-.126-.628s.252-1.004.691-1.319c.44-.314 1.131-.942 1.131-.942l-.126-1.13h-.816l-.503.314-.314.565h-2.425l-.062-1.319s-.44-.691-.88-.691c-.439 0-.816.691-.816.691l-.063 1.382h-2.324l-.628-.754h-.816l-.377.691.063.565 1.444 1.194.44.628.063 1.005-.063.691-.314.251h-.942s-1.388.208-2.01.942c-1.256 1.483-.502 2.362-.502 2.362s1.054-.501 1.633-.754c1.004-.439 1.633.566 1.633.566s-1.508.439-2.073.816-3.14 1.319-3.14 1.319l1.947-.188s1.758-.566 2.637-.754c.88-.188 1.759.251 1.759.251l-2.889 1.445 1.444-.063s.942-.314 1.257-.314c.314 0 1.067.188 1.067.188z"/><path d="m119.781 25.016c-.013.706-.348.504-.63 1.243.259-.056.761-.55 1.327-.218"/><path d="m122.579 28.102c.21.513-.192 1.038-.314 1.402.275-.104.61-1.098 1.373-.758"/><path d="m119.785 25.397c.018.166.044.254.097.411"/><path d="m132.172 9.502c.125.142.22.251.298.424"/><path d="m129.408 21.725.126 1.508.754 1.13 1.005 1.068.879-.628 1.444 2.01 1.884-2.01s.817.502 1.194.377c.377-.126.666-1.382 1.043-1.382s.628.377.942.188c.314-.188.377-1.256.816-1.633.44-.376 1.382-1.067 1.382-1.067"/><path d="m142.447 23.735s-.33 1.293-.816 2.575c-.691 1.822-.978 4.136-.978 4.136s1.355.362 2.422.236c1.068-.125 2.512-.628 3.517-1.13 1.005-.503 3.015-1.797 3.832-2.488.816-.691 2.386-3.266 2.7-3.769.314-.502 1.131-3.077 1.193-3.894.063-.816.252-3.328 0-4.522-.251-1.193-.942-3.29-1.507-4.019-.565-.73-1.633-2.049-1.633-2.049l1.131-.376"/><path d="m143.452 25.682s1.633-.377 2.45-.816c.816-.44 2.386-2.01 2.386-2.01"/><path d="m121.186 8.858s-1.384 1.102-2.074 1.918c-.691.816-1.738 3.287-1.863 4.543-.126 1.256-.252 2.575.125 4.271s1.508 3.957 1.86 4.585 1.488 2.418 2.116 2.921c.628.502 2.971 2.204 3.662 2.518s3.454 1.257 4.082 1.194 1.131-.377 1.131-.377-.189-1.86-.503-2.676c-.314-.817-1.067-2.638-1.13-3.203-.063-.566-.251-1.508-.251-1.508"/><path d="m133.239 7.995h6.884"/><path d="m133.051 8.686c.487 2.291 4.128 2.056 4.128 4.411v1.255l-3.123.025"/><path d="m132.612 11.55c.266-.047.455-.109.737-.109 1.146 0 2.276.188 2.637 1.287v.408c-.282 0-.455.031-.738.031-.596 0-.926-.125-1.522-.125"/><path d="m133.302 8.937h3.987"/><path d="m134.11 8.972c1.005.235 1.076.405 1.956 1.033l.486-.079c.047-.282.109-.728.109-1.011"/><path d="m131.858 11.048c.502.078.832.173 1.24.424"/><path d="m132.36 11.864c.848-.172 1.413-.094 2.245-.361"/><path d="m132.423 12.995c.581-.016.895-.047 1.475-.047.205 0 .33.078.518.11"/><path d="m147.532 10.943c.502-.236.52-.24.991-.507.032.188.183.772.199.96"/><path d="m119.799 8.686c.55.173.874.411 1.407.191"/><path d="m143.412 30.642c.899-.032.929.758 1.36 1.282.118-.327-.399-1.359.052-1.687"/><path d="m148.037 28.735c.671-.211.91.549 1.428.926-.038-.366-.679-1.229-.376-1.711"/><path d="m151.554 25.619c.318-.158 1.299.352 1.299.352-.173-.377-.654-.706-.624-1.152"/><path d="m153.625 22.113c.416-.574 1.176.066 1.425 0-.424-.376-.889-.353-1.062-1.225"/><path d="m154.448 17.968c.17-.353.466-.451.796-.561-.22-.157-.497-.404-.717-.577"/><path d="m154.03 13.548c.188-.345.554-.474.962-.537-.345-.126-1.067-.519-1.428-.644"/><path d="m126.698 30.25.135.558-.213 1.429c.575-.575.643-1.674 1.085-1.739"/><path d="m117.817 21.041c-.032.534-.508.702-.853 1.095.408-.032.811-.245 1.219-.245"/><path d="m117.085 17.092c-.283.125-.653.315-.951.409.267.126.741.232.977.454"/><path d="m118.026 12.724c-.324.188-.808.145-1.201.208.126.141.717.512.757.773"/><path d="m127.147 30.557v.235"/><path d="m117.542 13v.236"/><path d="m117.688 21.348.126.88"/><path d="m148.728 28.421v.236"/><path d="m153.878 21.411.235.11"/><path d="m133.93 6.676h1.491"/><path d="m134.135 6.534-.503-.251c.142-.565.769-.596 1.052-1.114.267.533.863.596 1.052 1.177-.189.078-.314.125-.503.188"/><path d="m136.981 6.646h1.492"/><path d="m137.186 6.505-.502-.252c.141-.565.769-.596 1.051-1.114.267.534.863.596 1.052 1.177-.189.079-.314.126-.503.189"/><path d="m154.003 12.807c.095.188.189.313.299.486"/><path d="m122.94 22.416c1.507 1.633 2.512 2.387 4.567 2.935"/><path d="m125.138 42.867c.204 0 .643-.189.847-.189 1.162 0 1.727-.596 2.778-1.114.236.957.551 2.01.708 2.999"/><path d="m142.573 44.5.612-2.684c.926.141 1.366.533 2.26.753"/><path d="m132.172 47.678c.722-.643 1.303-.894 1.868-1.663.219 1.334.566 2.92 1.9 2.92 1.256 0 1.506-1.351 1.914-2.544.345.456 1.249.911 1.767 1.162"/><path d="m131.053 53.28c.487-.188.962-.498 1.417-.749 0 1.067.376 2.354 1.444 2.354.973 0 1.381-.848 1.883-1.679.487.941 1.068 1.679 2.119 1.679 1.005 0 1.083-1.35 1.005-2.354.612.141 1.283.533 1.895.658"/><path d="m135.877 49.186-.099 4.351"/><path d="m141.631 61.936c-.251-.55-.455-.879-.55-1.491"/><path d="m132.925 64.197c.518-3.752 1.068-5.714 1.68-9.465"/><path d="m137.299 54.865 1.373 8.748"/><path d="m130.351 61.119c.313-.675.408-1.083.737-1.742"/></g></g></svg>